<svg id="Warstwa_1" data-name="Warstwa 1" xmlns="http://www.w3.org/2000/svg" xmlns:xlink="http://www.w3.org/1999/xlink" viewBox="0 0 1509.07 519.18"><defs><style>.cls-1{fill:none;}.cls-2{clip-path:url(#clip-path);}.cls-3{clip-path:url(#clip-path-2);}.cls-4{opacity:0.1;}.cls-5{clip-path:url(#clip-path-3);}.cls-6{fill:#0e76bf;}.cls-7{fill:#00406b;}.cls-8{fill:#00aeef;}.cls-9{fill:#2990d9;}</style><clipPath id="clip-path"><rect class="cls-1" width="1509.07" height="519.18"/></clipPath><clipPath id="clip-path-2"><rect class="cls-1" width="1509.07" height="519.18"/></clipPath><clipPath id="clip-path-3"><rect class="cls-1" x="102.58" y="452.29" width="159.83" height="66.89"/></clipPath></defs><title>indoorway</title><g class="cls-2"><g class="cls-3"><g class="cls-4"><g class="cls-5"><path d="M262.41,485.73c0,18.47-35.78,33.45-79.92,33.45s-79.92-15-79.92-33.45,35.78-33.45,79.92-33.45,79.92,15,79.92,33.45"/></g></g></g><polygon class="cls-6" points="182.49 0 31.79 124.2 138.35 212.02 182.49 175.64 226.63 212.02 333.2 124.2 182.49 0"/><polygon class="cls-6" points="182.49 274.17 0 123.27 0 335.34 182.49 485.73 364.99 335.34 364.99 123.27 182.49 274.17"/><g class="cls-3"><path class="cls-7" d="M509.48,178.93c0-10.64,8.42-18.47,19.06-18.47,10.43,0,19.06,7.83,19.06,18.47,0,10.43-8.63,18.26-19.06,18.26-10.64,0-19.06-7.83-19.06-18.26M545,309.75H512.48V212.43H545v97.32Z"/><path class="cls-7" d="M666.58,254.17v55.58H633.88V259.39c0-13.85-7-20.47-17.66-20.47-6,0-12.44,3.42-18.06,9.84v61H565.65V212.43h32.51v6.62A41.64,41.64,0,0,1,625,209.43c24.68,0,41.54,17.05,41.54,44.74"/><path class="cls-7" d="M787.37,309.75H754.86v-5a48.59,48.59,0,0,1-26.69,7.42c-26.28,0-48.35-21.87-48.35-51,0-28.9,22.08-50.56,48.35-50.56a48.53,48.53,0,0,1,26.69,7.42V167.29h32.51V309.75Zm-32.51-33.31V246.35a25.19,25.19,0,0,0-20.27-9.23c-13.24,0-22.87,10.83-22.87,24.08,0,13.65,9.63,24.28,22.87,24.28,7.22,0,14.25-2,20.27-9"/><path class="cls-7" d="M908,261c0,29.69-22.08,51.77-52.77,51.77S802.41,290.69,802.41,261c0-29.3,22.08-50.76,52.77-50.76S908,231.7,908,261m-30.7.2c0-12.64-8.82-22.88-21.87-22.88-13.24,0-22.07,10.24-22.07,22.88,0,13,8.83,23.47,22.07,23.47,13,0,21.87-10.43,21.87-23.47"/><path class="cls-7" d="M1024.93,261c0,29.69-22.07,51.77-52.77,51.77S919.38,290.69,919.38,261c0-29.3,22.08-50.76,52.77-50.76s52.77,21.46,52.77,50.76m-30.7.2c0-12.64-8.82-22.88-21.87-22.88-13.24,0-22.07,10.24-22.07,22.88,0,13,8.83,23.47,22.07,23.47,13,0,21.87-10.43,21.87-23.47"/><path class="cls-7" d="M1105,241.73c-15.86.6-25.88,4.81-33.51,12.44v55.58H1039V212.43h32.51v10.44c8.63-7.42,19.06-12,33.51-12v30.9Z"/><polygon class="cls-7" points="1234.6 309.75 1204.91 309.75 1189.45 259.59 1173.81 309.75 1144.31 309.75 1110.8 212.43 1144.91 212.43 1160.16 264.6 1176.61 212.43 1202.3 212.43 1218.75 264.2 1234 212.43 1267.91 212.43 1234.6 309.75"/><path class="cls-7" d="M1376.86,309.75h-32.51v-5.42a48.59,48.59,0,0,1-26.69,7.42c-26.28,0-48.35-21.87-48.35-50.76,0-29.1,22.07-50.76,48.35-50.76a48.53,48.53,0,0,1,26.69,7.42v-5.22h32.51v97.32ZM1344.35,276V245.94a25.19,25.19,0,0,0-20.27-9.23c-13.24,0-22.87,10.83-22.87,24.28s9.63,24.08,22.87,24.08c7.22,0,14.25-2,20.27-9"/><polygon class="cls-7" points="1449.08 354.7 1414.97 354.7 1433.43 310.95 1387.28 212.43 1421.79 212.43 1449.69 272.43 1474.97 212.43 1509.07 212.43 1449.08 354.7"/><polygon class="cls-8" points="182.49 274.17 182.49 485.73 364.99 335.34 364.99 123.27 182.49 274.17"/><polygon class="cls-9" points="182.49 175.64 182.49 0 31.79 124.2 138.35 212.02 182.49 175.64"/></g></g></svg>